<svg width="256" height="256" viewBox="0 0 256 256" xmlns="http://www.w3.org/2000/svg">
  <rect width="256" height="256" fill="#ffffff"/>
  <rect x="16" y="16" width="64" height="64" fill="#0f172a" rx="6"/>
  <rect x="32" y="32" width="32" height="32" fill="#ffffff"/>
  <rect x="40" y="40" width="16" height="16" fill="#0f172a"/>

  <rect x="176" y="16" width="64" height="64" fill="#0f172a" rx="6"/>
  <rect x="192" y="32" width="32" height="32" fill="#ffffff"/>
  <rect x="200" y="40" width="16" height="16" fill="#0f172a"/>

  <rect x="16" y="176" width="64" height="64" fill="#0f172a" rx="6"/>
  <rect x="32" y="192" width="32" height="32" fill="#ffffff"/>
  <rect x="40" y="200" width="16" height="16" fill="#0f172a"/>

  <rect x="112" y="112" width="32" height="32" fill="#0f172a"/>
  <rect x="88" y="88" width="16" height="16" fill="#0f172a"/>
  <rect x="152" y="88" width="16" height="16" fill="#0f172a"/>
  <rect x="88" y="152" width="16" height="16" fill="#0f172a"/>
  <rect x="152" y="152" width="16" height="16" fill="#0f172a"/>

  <rect x="96" y="32" width="24" height="24" fill="#0f172a"/>
  <rect x="136" y="32" width="24" height="24" fill="#0f172a"/>
  <rect x="200" y="112" width="24" height="24" fill="#0f172a"/>
  <rect x="32" y="120" width="24" height="24" fill="#0f172a"/>
  <rect x="200" y="176" width="24" height="24" fill="#0f172a"/>
  <rect x="120" y="200" width="24" height="24" fill="#0f172a"/>
</svg>
